<mxfile host="65bd71144e">
    <diagram name="系统分层架构" id="architecture-diagram-001">
        <mxGraphModel dx="467" dy="602" grid="1" gridSize="10" guides="1" tooltips="1" connect="1" arrows="1" fold="1" page="1" pageScale="1" pageWidth="1400" pageHeight="1000" math="0" shadow="0">
            <root>
                <mxCell id="0"/>
                <mxCell id="1" parent="0"/>
                <mxCell id="2" value="AI8051U 任务调度系统 - 分层架构图" style="text;html=1;strokeColor=none;fillColor=none;align=center;verticalAlign=middle;whiteSpace=wrap;fontSize=22;fontStyle=1;fontColor=#000000;" parent="1" vertex="1">
                    <mxGeometry x="400" y="20" width="600" height="40" as="geometry"/>
                </mxCell>
                <mxCell id="3" value="应用层 (Application Layer)" style="rounded=0;whiteSpace=wrap;html=1;fillColor=#dae8fc;strokeColor=#6c8ebf;strokeWidth=2;fontSize=18;fontStyle=1;fontColor=#000000;verticalAlign=top;align=center;" parent="1" vertex="1">
                    <mxGeometry x="100" y="80" width="1200" height="180" as="geometry"/>
                </mxCell>
                <mxCell id="4" value="Sample_Display&lt;br&gt;(1ms)&lt;br&gt;&lt;br&gt;8位LED扫描&lt;br&gt;通过HC595" style="rounded=1;whiteSpace=wrap;html=1;fillColor=#d5e8d4;strokeColor=#82b366;strokeWidth=2;fontSize=13;fontStyle=1;fontColor=#000000;align=center;" parent="1" vertex="1">
                    <mxGeometry x="150" y="130" width="180" height="110" as="geometry"/>
                </mxCell>
                <mxCell id="5" value="Sample_MatrixKey&lt;br&gt;(10ms)&lt;br&gt;&lt;br&gt;4x4矩阵键盘&lt;br&gt;消抖+识别" style="rounded=1;whiteSpace=wrap;html=1;fillColor=#d5e8d4;strokeColor=#82b366;strokeWidth=2;fontSize=13;fontStyle=1;fontColor=#000000;align=center;" parent="1" vertex="1">
                    <mxGeometry x="370" y="130" width="180" height="110" as="geometry"/>
                </mxCell>
                <mxCell id="6" value="Sample_adcKey&lt;br&gt;(10ms)&lt;br&gt;&lt;br&gt;ADC按键扫描&lt;br&gt;时间调整" style="rounded=1;whiteSpace=wrap;html=1;fillColor=#d5e8d4;strokeColor=#82b366;strokeWidth=2;fontSize=13;fontStyle=1;fontColor=#000000;align=center;" parent="1" vertex="1">
                    <mxGeometry x="590" y="130" width="180" height="110" as="geometry"/>
                </mxCell>
                <mxCell id="7" value="Sample_NTC&lt;br&gt;(300ms)&lt;br&gt;&lt;br&gt;NTC温度采集&lt;br&gt;12位ADC+查表" style="rounded=1;whiteSpace=wrap;html=1;fillColor=#d5e8d4;strokeColor=#82b366;strokeWidth=2;fontSize=13;fontStyle=1;fontColor=#000000;align=center;" parent="1" vertex="1">
                    <mxGeometry x="810" y="130" width="180" height="110" as="geometry"/>
                </mxCell>
                <mxCell id="8" value="Sample_RTC&lt;br&gt;(500ms)&lt;br&gt;&lt;br&gt;软件RTC时钟&lt;br&gt;时分秒计时" style="rounded=1;whiteSpace=wrap;html=1;fillColor=#d5e8d4;strokeColor=#82b366;strokeWidth=2;fontSize=13;fontStyle=1;fontColor=#000000;align=center;" parent="1" vertex="1">
                    <mxGeometry x="1030" y="130" width="180" height="110" as="geometry"/>
                </mxCell>
                <mxCell id="9" value="" style="edgeStyle=orthogonalEdgeStyle;rounded=0;orthogonalLoop=1;jettySize=auto;html=1;strokeWidth=3;strokeColor=#6c8ebf;endArrow=block;endFill=1;" parent="1" edge="1">
                    <mxGeometry relative="1" as="geometry">
                        <mxPoint x="700" y="260" as="sourcePoint"/>
                        <mxPoint x="700" y="300" as="targetPoint"/>
                    </mxGeometry>
                </mxCell>
                <mxCell id="10" value="任务调度层 (Scheduler Layer)" style="rounded=0;whiteSpace=wrap;html=1;fillColor=#fff2cc;strokeColor=#d6b656;strokeWidth=2;fontSize=18;fontStyle=1;fontColor=#000000;verticalAlign=top;align=center;" parent="1" vertex="1">
                    <mxGeometry x="100" y="300" width="1200" height="220" as="geometry"/>
                </mxCell>
                <mxCell id="11" value="任务控制块数组 (Task_Comps[])" style="rounded=1;whiteSpace=wrap;html=1;fillColor=#ffe6cc;strokeColor=#d79b00;strokeWidth=2;fontSize=14;fontStyle=1;fontColor=#000000;verticalAlign=top;align=center;" parent="1" vertex="1">
                    <mxGeometry x="150" y="350" width="500" height="150" as="geometry"/>
                </mxCell>
                <mxCell id="12" value="Task[0]: Run=?, TIMCount=1&lt;br&gt;Task[1]: Run=?, TIMCount=10&lt;br&gt;Task[2]: Run=?, TIMCount=10&lt;br&gt;Task[3]: Run=?, TIMCount=300&lt;br&gt;Task[4]: Run=?, TIMCount=500" style="text;html=1;strokeColor=none;fillColor=none;align=left;verticalAlign=top;whiteSpace=wrap;fontSize=11;fontStyle=1;fontColor=#000000;fontFamily=Courier New;" parent="1" vertex="1">
                    <mxGeometry x="170" y="385" width="460" height="100" as="geometry"/>
                </mxCell>
                <mxCell id="13" value="Task_Marks_Handler&lt;br&gt;(中断中调用)&lt;br&gt;&lt;br&gt;• 倒计时递减&lt;br&gt;• 到期设置Run=1&lt;br&gt;• 自动重载计数器" style="rounded=1;whiteSpace=wrap;html=1;fillColor=#f8cecc;strokeColor=#b85450;strokeWidth=2;fontSize=12;fontStyle=1;fontColor=#000000;align=left;verticalAlign=top;" parent="1" vertex="1">
                    <mxGeometry x="700" y="350" width="230" height="140" as="geometry"/>
                </mxCell>
                <mxCell id="14" value="Task_Pro_Handler&lt;br&gt;(主循环调用)&lt;br&gt;&lt;br&gt;• 检查Run标志&lt;br&gt;• 执行任务函数&lt;br&gt;• 清除Run标志" style="rounded=1;whiteSpace=wrap;html=1;fillColor=#e1d5e7;strokeColor=#9673a6;strokeWidth=2;fontSize=12;fontStyle=1;fontColor=#000000;align=left;verticalAlign=top;" parent="1" vertex="1">
                    <mxGeometry x="980" y="350" width="230" height="140" as="geometry"/>
                </mxCell>
                <mxCell id="15" value="" style="edgeStyle=orthogonalEdgeStyle;rounded=0;orthogonalLoop=1;jettySize=auto;html=1;strokeWidth=3;strokeColor=#d6b656;endArrow=block;endFill=1;" parent="1" edge="1">
                    <mxGeometry relative="1" as="geometry">
                        <mxPoint x="700" y="520" as="sourcePoint"/>
                        <mxPoint x="700" y="560" as="targetPoint"/>
                    </mxGeometry>
                </mxCell>
                <mxCell id="16" value="硬件抽象层 (HAL Layer)" style="rounded=0;whiteSpace=wrap;html=1;fillColor=#e1d5e7;strokeColor=#9673a6;strokeWidth=2;fontSize=18;fontStyle=1;fontColor=#000000;verticalAlign=top;align=center;" parent="1" vertex="1">
                    <mxGeometry x="100" y="560" width="1200" height="140" as="geometry"/>
                </mxCell>
                <mxCell id="17" value="GPIO&lt;br&gt;配置" style="rounded=1;whiteSpace=wrap;html=1;fillColor=#f5f5f5;strokeColor=#000000;strokeWidth=2;fontSize=13;fontStyle=1;fontColor=#000000;" parent="1" vertex="1">
                    <mxGeometry x="150" y="610" width="120" height="70" as="geometry"/>
                </mxCell>
                <mxCell id="18" value="Timer0&lt;br&gt;1ms中断" style="rounded=1;whiteSpace=wrap;html=1;fillColor=#f5f5f5;strokeColor=#000000;strokeWidth=2;fontSize=13;fontStyle=1;fontColor=#000000;" parent="1" vertex="1">
                    <mxGeometry x="310" y="610" width="120" height="70" as="geometry"/>
                </mxCell>
                <mxCell id="19" value="ADC&lt;br&gt;12位" style="rounded=1;whiteSpace=wrap;html=1;fillColor=#f5f5f5;strokeColor=#000000;strokeWidth=2;fontSize=13;fontStyle=1;fontColor=#000000;" parent="1" vertex="1">
                    <mxGeometry x="470" y="610" width="120" height="70" as="geometry"/>
                </mxCell>
                <mxCell id="20" value="PWM&lt;br&gt;蜂鸣器" style="rounded=1;whiteSpace=wrap;html=1;fillColor=#f5f5f5;strokeColor=#000000;strokeWidth=2;fontSize=13;fontStyle=1;fontColor=#000000;" parent="1" vertex="1">
                    <mxGeometry x="630" y="610" width="120" height="70" as="geometry"/>
                </mxCell>
                <mxCell id="21" value="UART&lt;br&gt;调试" style="rounded=1;whiteSpace=wrap;html=1;fillColor=#f5f5f5;strokeColor=#000000;strokeWidth=2;fontSize=13;fontStyle=1;fontColor=#000000;" parent="1" vertex="1">
                    <mxGeometry x="790" y="610" width="120" height="70" as="geometry"/>
                </mxCell>
                <mxCell id="22" value="HC595&lt;br&gt;LED驱动" style="rounded=1;whiteSpace=wrap;html=1;fillColor=#f5f5f5;strokeColor=#000000;strokeWidth=2;fontSize=13;fontStyle=1;fontColor=#000000;" parent="1" vertex="1">
                    <mxGeometry x="950" y="610" width="120" height="70" as="geometry"/>
                </mxCell>
                <mxCell id="23" value="" style="edgeStyle=orthogonalEdgeStyle;rounded=0;orthogonalLoop=1;jettySize=auto;html=1;strokeWidth=3;strokeColor=#9673a6;endArrow=block;endFill=1;" parent="1" edge="1">
                    <mxGeometry relative="1" as="geometry">
                        <mxPoint x="700" y="700" as="sourcePoint"/>
                        <mxPoint x="700" y="740" as="targetPoint"/>
                    </mxGeometry>
                </mxCell>
                <mxCell id="24" value="硬件层 (Hardware)" style="rounded=0;whiteSpace=wrap;html=1;fillColor=#f8cecc;strokeColor=#b85450;strokeWidth=2;fontSize=18;fontStyle=1;fontColor=#000000;verticalAlign=middle;align=center;" parent="1" vertex="1">
                    <mxGeometry x="100" y="740" width="1200" height="80" as="geometry"/>
                </mxCell>
                <mxCell id="25" value="AI8051U MCU" style="text;html=1;strokeColor=none;fillColor=none;align=center;verticalAlign=middle;whiteSpace=wrap;fontSize=20;fontStyle=1;fontColor=#000000;" parent="1" vertex="1">
                    <mxGeometry x="400" y="760" width="200" height="40" as="geometry"/>
                </mxCell>
                <mxCell id="26" value="24MHz / 64KB Flash / 2KB RAM" style="text;html=1;strokeColor=none;fillColor=none;align=center;verticalAlign=middle;whiteSpace=wrap;fontSize=13;fontStyle=1;fontColor=#000000;" parent="1" vertex="1">
                    <mxGeometry x="700" y="765" width="300" height="30" as="geometry"/>
                </mxCell>
                <mxCell id="27" value="性能指标&lt;br&gt;• CPU占用率: 5-15%&lt;br&gt;• 内存占用: ~200B RAM&lt;br&gt;• 中断延迟: &amp;lt;5μs&lt;br&gt;• 任务响应: 0-2ms" style="rounded=1;whiteSpace=wrap;html=1;fillColor=#ffe6cc;strokeColor=#000000;strokeWidth=2;fontSize=12;fontStyle=1;fontColor=#000000;align=left;verticalAlign=top;" parent="1" vertex="1">
                    <mxGeometry x="100" y="860" width="280" height="120" as="geometry"/>
                </mxCell>
                <mxCell id="28" value="关键特性&lt;br&gt;✓ 分层清晰，易于维护&lt;br&gt;✓ 中断仅做标记&lt;br&gt;✓ 任务在主循环执行&lt;br&gt;✓ 支持多任务调度" style="rounded=1;whiteSpace=wrap;html=1;fillColor=#d5e8d4;strokeColor=#000000;strokeWidth=2;fontSize=12;fontStyle=1;fontColor=#000000;align=left;verticalAlign=top;" parent="1" vertex="1">
                    <mxGeometry x="420" y="860" width="280" height="120" as="geometry"/>
                </mxCell>
            </root>
        </mxGraphModel>
    </diagram>
</mxfile>